<svg xmlns="http://www.w3.org/2000/svg" version="1.1" xmlns:xlink="http://www.w3.org/1999/xlink" xmlns:svgjs="http://svgjs.com/svgjs" width="1440" height="560" preserveAspectRatio="none" viewBox="0 0 1440 560"><g mask="url(&quot;#SvgjsMask2107&quot;)" fill="none"><rect width="251.52" height="251.52" clip-path="url(&quot;#SvgjsClipPath2108&quot;)" x="667.44" y="61.93" fill="url(#SvgjsPattern2109)" transform="rotate(91.16, 793.2, 187.69)"></rect><rect width="142.92" height="142.92" clip-path="url(&quot;#SvgjsClipPath2110&quot;)" x="269.4" y="268.07" fill="url(#SvgjsPattern2111)" transform="rotate(234.92, 340.86, 339.53)"></rect><path d="M215.29 362.04a5.6 5.6 0 1 0-11.17-0.86 5.6 5.6 0 1 0 11.17 0.86zM199.34 360.81a5.6 5.6 0 1 0-11.17-0.86 5.6 5.6 0 1 0 11.17 0.86zM183.39 359.58a5.6 5.6 0 1 0-11.17-0.86 5.6 5.6 0 1 0 11.17 0.86zM167.43 358.35a5.6 5.6 0 1 0-11.16-0.86 5.6 5.6 0 1 0 11.16 0.86zM248.43 348.55a5.6 5.6 0 1 0-11.17-0.86 5.6 5.6 0 1 0 11.17 0.86zM232.47 347.32a5.6 5.6 0 1 0-11.16-0.87 5.6 5.6 0 1 0 11.16 0.87zM216.52 346.09a5.6 5.6 0 1 0-11.17-0.87 5.6 5.6 0 1 0 11.17 0.87zM200.57 344.86a5.6 5.6 0 1 0-11.17-0.87 5.6 5.6 0 1 0 11.17 0.87zM281.56 335.05a5.6 5.6 0 1 0-11.16-0.86 5.6 5.6 0 1 0 11.16 0.86zM265.61 333.82a5.6 5.6 0 1 0-11.17-0.86 5.6 5.6 0 1 0 11.17 0.86zM249.66 332.59a5.6 5.6 0 1 0-11.17-0.86 5.6 5.6 0 1 0 11.17 0.86zM233.7 331.36a5.6 5.6 0 1 0-11.16-0.86 5.6 5.6 0 1 0 11.16 0.86z" fill="#037b0b"></path><rect width="309.12" height="309.12" clip-path="url(&quot;#SvgjsClipPath2112&quot;)" x="725.67" y="39.53" fill="url(#SvgjsPattern2113)" transform="rotate(177.52, 880.23, 194.09)"></rect><rect width="371.52" height="371.52" clip-path="url(&quot;#SvgjsClipPath2114&quot;)" x="514.23" y="185.7" fill="url(#SvgjsPattern2115)" transform="rotate(49.71, 699.99, 371.46)"></rect><rect width="300" height="300" clip-path="url(&quot;#SvgjsClipPath2116&quot;)" x="-75.37" y="320.8" fill="url(#SvgjsPattern2117)" transform="rotate(274.83, 74.63, 470.8)"></rect><path d="M1424.96 268.16L1421.38 255.86 1432.59 249.67 1429 237.37 1440.21 231.18 1436.62 218.88 1447.83 212.68" stroke="#d3b714" stroke-width="1" stroke-dasharray="3, 3"></path><circle r="46.666666666666664" cx="1264.33" cy="412.43" fill="#d3b714"></circle><rect width="324" height="324" clip-path="url(&quot;#SvgjsClipPath2118&quot;)" x="875.82" y="300.47" fill="url(#SvgjsPattern2119)" transform="rotate(192.33, 1037.82, 462.47)"></rect><path d="M1019.03 6.86a5.6 5.6 0 1 0-8.91 6.79 5.6 5.6 0 1 0 8.91-6.79zM1006.31 16.56a5.6 5.6 0 1 0-8.91 6.8 5.6 5.6 0 1 0 8.91-6.8zM993.59 26.27a5.6 5.6 0 1 0-8.91 6.79 5.6 5.6 0 1 0 8.91-6.79zM980.86 35.97a5.6 5.6 0 1 0-8.9 6.8 5.6 5.6 0 1 0 8.9-6.8zM1034.76-25.27a5.6 5.6 0 1 0-8.9 6.79 5.6 5.6 0 1 0 8.9-6.79zM1022.04-15.57a5.6 5.6 0 1 0-8.9 6.8 5.6 5.6 0 1 0 8.9-6.8zM1009.32-5.86a5.6 5.6 0 1 0-8.9 6.79 5.6 5.6 0 1 0 8.9-6.79zM996.6 3.84a5.6 5.6 0 1 0-8.9 6.8 5.6 5.6 0 1 0 8.9-6.8z" stroke="#d3b714" stroke-width="2.11"></path><rect width="139.68" height="139.68" clip-path="url(&quot;#SvgjsClipPath2120&quot;)" x="123.46" y="366.37" fill="url(#SvgjsPattern2121)" transform="rotate(113.52, 193.3, 436.21)"></rect><path d="M983.82 112.37L971.91 117.09 964.7 106.51 952.79 111.22 945.58 100.64 933.67 105.35 926.46 94.77M986.16 104.73L974.26 109.44 967.04 98.86 955.14 103.57 947.92 92.99 936.02 97.71 928.8 87.12M988.51 97.08L976.6 101.79 969.39 91.21 957.48 95.93 950.27 85.34 938.36 90.06 931.15 79.48" stroke="#d3b714" stroke-width="1" stroke-dasharray="3, 2"></path></g><defs><mask id="SvgjsMask2107"><rect width="1440" height="560" fill="#ffffff"></rect></mask><pattern x="0" y="0" width="10.48" height="10.48" patternUnits="userSpaceOnUse" id="SvgjsPattern2109"><path d="M0 10.48L5.24 0L10.48 10.48" stroke="#d3b714" fill="none"></path></pattern><clipPath id="SvgjsClipPath2108"><circle r="62.88" cx="793.2" cy="187.69"></circle></clipPath><pattern x="0" y="0" width="142.92" height="7.94" patternUnits="userSpaceOnUse" id="SvgjsPattern2111"><rect width="142.92" height="3.97" x="0" y="0" fill="#d3b714"></rect><rect width="142.92" height="3.97" x="0" y="3.97" fill="rgba(0, 0, 0, 0)"></rect></pattern><clipPath id="SvgjsClipPath2110"><circle r="35.73" cx="340.86" cy="339.53"></circle></clipPath><pattern x="0" y="0" width="11.04" height="11.04" patternUnits="userSpaceOnUse" id="SvgjsPattern2113"><path d="M0 11.04L5.52 0L11.04 11.04" stroke="#e73635" fill="none"></path></pattern><clipPath id="SvgjsClipPath2112"><circle r="77.28" cx="880.23" cy="194.09"></circle></clipPath><pattern x="0" y="0" width="10.32" height="10.32" patternUnits="userSpaceOnUse" id="SvgjsPattern2115"><path d="M0 10.32L5.16 0L10.32 10.32" stroke="#d3b714" fill="none"></path></pattern><clipPath id="SvgjsClipPath2114"><circle r="92.88" cx="699.99" cy="371.46"></circle></clipPath><pattern x="0" y="0" width="6" height="6" patternUnits="userSpaceOnUse" id="SvgjsPattern2117"><path d="M0 6L3 0L6 6" stroke="#037b0b" fill="none"></path></pattern><clipPath id="SvgjsClipPath2116"><circle r="75" cx="74.63" cy="470.8"></circle></clipPath><pattern x="0" y="0" width="324" height="6" patternUnits="userSpaceOnUse" id="SvgjsPattern2119"><rect width="324" height="3" x="0" y="0" fill="#e73635"></rect><rect width="324" height="3" x="0" y="3" fill="rgba(0, 0, 0, 0)"></rect></pattern><clipPath id="SvgjsClipPath2118"><circle r="81" cx="1037.82" cy="462.47"></circle></clipPath><pattern x="0" y="0" width="11.64" height="11.64" patternUnits="userSpaceOnUse" id="SvgjsPattern2121"><path d="M0 11.64L5.82 0L11.64 11.64" stroke="#e73635" fill="none"></path></pattern><clipPath id="SvgjsClipPath2120"><circle r="34.92" cx="193.3" cy="436.21"></circle></clipPath></defs></svg>